<svg width="202" height="71" viewBox="0 0 202 71" fill="none" xmlns="http://www.w3.org/2000/svg">
<g filter="url(#filter0_d)">
<path d="M13.0689 0.422666C25.0832 0.42267 23.7303 0.422663 33.141 0.422666L47.9639 17.2442L62.8807 0.415894C62.8807 0.415894 77.8773 0.422688 82.677 0.42269L90.9605 61.6886H69.9576L53.3809 30.5268L42.1597 50.8233L36.4819 41.8068L25.6456 62.2287H4.66016L13.0689 0.422666Z" fill="#F9C71B"/>
<path d="M48.3381 17.5759L63.1055 0.915995L63.5342 0.916185L65.2987 0.916955L70.9788 0.919291C75.0787 0.920893 79.712 0.922494 82.24 0.922673L90.3883 61.1886H70.2579L53.8223 30.292L53.3894 29.4781L52.9433 30.2849L42.1317 49.8405L36.905 41.5404L36.445 40.8098L36.0403 41.5725L25.3449 61.7287H5.23279L13.5055 0.922666L24.0813 0.922666L32.9152 0.922666L47.5888 17.5748L47.9628 17.9992L48.3381 17.5759Z" stroke="black" stroke-opacity="0.18"/>
<path d="M111.196 29.5223L108.396 34.5223H105.596L102.796 29.5223V37.3223H99.1961V23.3223H102.996L106.996 30.7223L110.996 23.3223H114.796V37.3223H111.196V29.5223ZM126.204 27.1223C126.204 26.3223 125.804 25.9223 125.004 25.9223H121.604C120.804 25.9223 120.404 26.3223 120.404 27.1223V33.5223C120.404 34.3223 120.804 34.7223 121.604 34.7223H125.004C125.804 34.7223 126.204 34.3223 126.204 33.5223V27.1223ZM129.804 33.5223C129.804 34.9223 129.484 35.9423 128.844 36.5823C128.217 37.2089 127.204 37.5223 125.804 37.5223H120.804C119.404 37.5223 118.384 37.2089 117.744 36.5823C117.117 35.9423 116.804 34.9223 116.804 33.5223V27.1223C116.804 25.7223 117.117 24.7089 117.744 24.0823C118.384 23.4423 119.404 23.1223 120.804 23.1223H125.804C127.204 23.1223 128.217 23.4423 128.844 24.0823C129.484 24.7089 129.804 25.7223 129.804 27.1223V33.5223ZM137.323 33.1223L140.723 23.3223H144.623L139.323 37.3223H135.323L130.023 23.3223H133.923L137.323 33.1223ZM146.716 37.3223H142.816L148.116 23.3223H152.116L157.416 37.3223H153.516L152.616 34.8223H147.616L146.716 37.3223ZM148.516 32.2223H151.716L150.116 27.5223L148.516 32.2223ZM168.824 37.1223C165.851 37.3889 163.384 37.5223 161.424 37.5223C160.118 37.5223 159.158 37.2156 158.544 36.6023C157.931 35.9889 157.624 35.0289 157.624 33.7223V27.3223C157.624 25.9223 157.938 24.9089 158.564 24.2823C159.204 23.6423 160.224 23.3223 161.624 23.3223H168.824V26.1223H162.424C161.624 26.1223 161.224 26.5223 161.224 27.3223V33.7223C161.224 34.0289 161.311 34.2756 161.484 34.4623C161.671 34.6356 161.904 34.7223 162.184 34.7223C162.464 34.7223 162.771 34.7223 163.104 34.7223C163.438 34.7089 163.784 34.6956 164.144 34.6823C164.504 34.6689 164.864 34.6556 165.224 34.6423C165.598 34.6289 166.071 34.6023 166.644 34.5623C167.231 34.5223 167.958 34.4756 168.824 34.4223V37.1223ZM172.927 37.3223H169.027L174.327 23.3223H178.327L183.627 37.3223H179.727L178.827 34.8223H173.827L172.927 37.3223ZM174.727 32.2223H177.927L176.327 27.5223L174.727 32.2223ZM184.626 23.3223H193.026C194.426 23.3223 195.439 23.6423 196.066 24.2823C196.706 24.9089 197.026 25.9223 197.026 27.3223V29.1223C197.026 30.2289 196.839 31.0889 196.466 31.7023C196.106 32.3156 195.526 32.7223 194.726 32.9223L197.226 37.3223H193.326L191.026 33.1223H188.226V37.3223H184.626V23.3223ZM193.426 27.3223C193.426 26.5223 193.026 26.1223 192.226 26.1223H188.226V30.3223H192.226C193.026 30.3223 193.426 29.9223 193.426 29.1223V27.3223Z" fill="#2C2C37"/>
</g>
<defs>
<filter id="filter0_d" x="0.660156" y="0.415894" width="200.565" height="69.8128" filterUnits="userSpaceOnUse" color-interpolation-filters="sRGB">
<feFlood flood-opacity="0" result="BackgroundImageFix"/>
<feColorMatrix in="SourceAlpha" type="matrix" values="0 0 0 0 0 0 0 0 0 0 0 0 0 0 0 0 0 0 127 0"/>
<feOffset dy="4"/>
<feGaussianBlur stdDeviation="2"/>
<feColorMatrix type="matrix" values="0 0 0 0 0 0 0 0 0 0 0 0 0 0 0 0 0 0 0.25 0"/>
<feBlend mode="normal" in2="BackgroundImageFix" result="effect1_dropShadow"/>
<feBlend mode="normal" in="SourceGraphic" in2="effect1_dropShadow" result="shape"/>
</filter>
</defs>
</svg>
