<svg width="194" height="252" viewBox="0 0 194 252" fill="none" xmlns="http://www.w3.org/2000/svg">
<g clip-path="url(#clip0)">
<path d="M76.3973 25.3717C84.3865 25.3717 90.863 20.3 90.863 14.0438C90.863 7.78751 84.3865 2.71582 76.3973 2.71582C68.4081 2.71582 61.9316 7.78751 61.9316 14.0438C61.9316 20.3 68.4081 25.3717 76.3973 25.3717Z" fill="#3F3D56"/>
<path d="M105.329 73.2967C116.834 73.2967 126.16 63.9333 126.16 52.383C126.16 40.8327 116.834 31.4694 105.329 31.4694C93.8244 31.4694 84.498 40.8327 84.498 52.383C84.498 63.9333 93.8244 73.2967 105.329 73.2967Z" fill="#3F3D56"/>
<path d="M171.434 243.073C174.31 243.073 176.64 240.733 176.64 237.846C176.64 234.96 174.31 232.62 171.434 232.62C168.559 232.62 166.229 234.96 166.229 237.846C166.229 240.733 168.559 243.073 171.434 243.073Z" fill="#3F3D56"/>
<path d="M144.241 243.073C147.116 243.073 149.447 240.733 149.447 237.846C149.447 234.96 147.116 232.62 144.241 232.62C141.366 232.62 139.035 234.96 139.035 237.846C139.035 240.733 141.366 243.073 144.241 243.073Z" fill="#3F3D56"/>
<path d="M152.34 111.786H150.025V175.98H152.34V111.786Z" fill="#3F3D56"/>
<path d="M164.782 111.786H162.467V175.98H164.782V111.786Z" fill="#3F3D56"/>
<path d="M150.591 113.528L150.012 111.786C150.012 111.786 156.377 104.235 165.345 110.322L164.765 112.939H162.45C162.45 112.939 158.692 109.773 152.327 113.389L150.591 113.528Z" fill="#3F3D56"/>
<path d="M111.694 102.636H90.8633V129.358H111.694V102.636Z" fill="#FBBEBE"/>
<path d="M126.16 95.0815H119.795V107.863H126.16V95.0815Z" fill="#FBBEBE"/>
<path d="M93.6113 232.62L91.0084 240.463C91.0084 240.463 89.8491 246.272 93.6113 246.561C97.3736 246.85 103.454 245.69 103.454 245.69C103.454 245.69 104.322 243.077 103.454 240.753C102.587 238.428 99.9838 232.038 99.9838 232.038L93.6113 232.62Z" fill="#3C354C"/>
<path d="M113.283 232.909C113.283 232.909 109.233 243.077 112.415 244.819C115.598 246.561 119.94 245.108 123.41 246.561C126.881 248.014 136.429 244.53 136.429 244.53C136.429 244.53 137.588 241.335 131.223 240.463C131.223 240.463 124.296 235.233 124.296 234.073C124.296 232.913 120.246 232.909 120.246 232.909H113.283Z" fill="#3C354C"/>
<path d="M112.415 117.016C112.415 117.016 88.6934 121.954 85.8025 120.501C82.9115 119.048 80.0169 140.265 80.0169 140.265C80.0169 140.265 78.8576 153.046 82.9079 170.183C86.9581 187.319 82.9079 195.745 82.9079 195.745C82.9079 195.745 83.4875 212.01 87.8294 219.564C92.1713 227.119 92.1677 234.088 92.1677 234.088C92.1677 234.088 100.553 234.959 100.848 232.924C100.848 232.924 97.3736 224.791 97.9532 217.24C98.5329 209.69 96.2179 195.163 96.2179 195.163C96.2179 195.163 99.9802 176.862 99.4005 169.908C98.8209 162.954 101.427 148.123 102.871 150.737C104.315 153.35 108.081 166.131 108.081 168.748C108.081 171.365 109.539 188.787 110.396 189.951C111.252 191.115 110.972 194.599 110.684 196.341C110.396 198.083 110.396 211.154 111.839 218.126C113.283 225.098 112.131 232.938 112.419 234.102C112.707 235.266 121.099 234.391 121.387 232.356C121.387 232.356 122.546 219.868 123.126 218.126C123.706 216.384 123.979 194.277 123.979 194.277C123.979 194.277 124.555 177.141 125.135 175.398C125.714 173.656 126.593 136.184 122.82 131.843C119.047 127.503 120.505 116.449 120.505 116.449L112.415 117.016Z" fill="#3F3D56"/>
<path d="M92.9157 66.4158C91.8439 68.4435 90.7648 70.4894 90.0941 72.6891C89.4233 74.8888 89.1899 77.2716 89.8206 79.4822C90.2719 80.8631 90.8993 82.1794 91.6872 83.3985C92.3139 84.5636 93.1087 85.6292 94.0459 86.5608C96.2332 88.5665 99.4122 88.9692 102.365 89.2839C102.872 89.3689 103.389 89.3602 103.893 89.2583C104.296 89.1405 104.67 88.9357 104.986 88.6581C106.28 87.56 106.867 85.8837 107.341 84.266C108.469 80.4186 109.276 76.4839 109.755 72.5025C109.866 71.873 109.866 71.2287 109.755 70.5992C109.5 69.5012 108.625 68.6484 107.99 67.7041C107.23 66.5757 106.796 65.2583 106.736 63.8976C106.711 63.2352 106.736 62.5031 106.321 61.9981C106.044 61.7231 105.709 61.5153 105.34 61.3905C103.616 60.6585 101.895 59.9264 100.167 59.2237C99.1242 58.7918 97.2504 57.6426 96.1567 58.4917C95.2198 59.2237 95.6718 60.922 95.2708 61.9395C94.6547 63.484 93.6886 64.9517 92.9157 66.4158Z" fill="#FBBEBE"/>
<path opacity="0.1" d="M92.9157 66.4158C91.8439 68.4435 90.7648 70.4894 90.0941 72.6891C89.4233 74.8888 89.1899 77.2716 89.8206 79.4822C90.2719 80.8631 90.8993 82.1794 91.6872 83.3985C92.3139 84.5636 93.1087 85.6292 94.0459 86.5608C96.2332 88.5665 99.4122 88.9692 102.365 89.2839C102.872 89.3689 103.389 89.3602 103.893 89.2583C104.296 89.1405 104.67 88.9357 104.986 88.6581C106.28 87.56 106.867 85.8837 107.341 84.266C108.469 80.4186 109.276 76.4839 109.755 72.5025C109.866 71.873 109.866 71.2287 109.755 70.5992C109.5 69.5012 108.625 68.6484 107.99 67.7041C107.23 66.5757 106.796 65.2583 106.736 63.8976C106.711 63.2352 106.736 62.5031 106.321 61.9981C106.044 61.7231 105.709 61.5153 105.34 61.3905C103.616 60.6585 101.895 59.9264 100.167 59.2237C99.1242 58.7918 97.2504 57.6426 96.1567 58.4917C95.2198 59.2237 95.6718 60.922 95.2708 61.9395C94.6547 63.484 93.6886 64.9517 92.9157 66.4158Z" fill="black"/>
<path d="M104.315 67.0562C109.908 67.0562 114.442 62.504 114.442 56.8885C114.442 51.2731 109.908 46.7208 104.315 46.7208C98.7217 46.7208 94.1875 51.2731 94.1875 56.8885C94.1875 62.504 98.7217 67.0562 104.315 67.0562Z" fill="#FBBEBE"/>
<path d="M107.871 82.5311C105.953 83.2229 103.973 83.8195 101.936 83.8927C100.409 83.908 98.8857 83.7446 97.3967 83.4059C94.3204 82.7916 91.2991 81.9261 88.363 80.8182C87.7359 82.059 87.5682 83.4754 87.5135 84.8662C87.3568 89.0717 88.1916 93.2442 88.5125 97.4423C88.9171 102.779 88.5125 108.232 89.8796 113.4C89.9585 112.522 90.2989 111.688 90.8566 111.007C91.3213 110.504 91.8767 110.094 92.4934 109.799C95.2525 108.367 98.4298 107.97 101.454 108.679C103.208 109.096 105.071 109.876 106.733 109.176C107.725 108.756 108.443 107.87 108.993 106.94C109.928 105.263 110.595 103.448 110.969 101.564C112.063 96.7176 112.209 91.7069 112.34 86.7366C112.376 85.4079 112.945 81.4587 111.848 80.4851C111.079 79.808 110.853 80.7743 110.298 81.2794C109.578 81.8507 108.753 82.2758 107.871 82.5311Z" fill="#F2F2F2"/>
<path d="M93.6158 65.0762C92.9413 64.5455 91.9425 64.7102 91.1988 65.1604C90.4551 65.6106 89.8535 66.2328 89.0989 66.6427C87.0063 67.781 84.1956 66.9465 82.2087 68.2714C80.3422 69.5195 80.0214 72.0889 79.8755 74.3362C79.511 80.0459 79.1975 85.7959 77.8304 91.3519C77.4658 92.8159 77.0283 94.3166 77.1669 95.8245C77.276 96.686 77.4789 97.5329 77.772 98.35L79.5657 103.976C80.3969 106.589 81.239 109.242 81.3265 111.984C81.414 114.725 80.7723 117.331 80.1344 119.948C78.8735 125.104 78.0527 130.358 77.6809 135.653C77.5679 137.407 77.5205 139.237 78.2277 140.843C78.9569 142.523 80.437 143.772 81.9973 144.72C83.5576 145.667 85.2528 146.399 86.7803 147.406C89.8462 149.43 92.307 152.618 95.8943 153.449C97.5384 153.815 99.2591 153.668 100.914 153.346C100.914 153.346 99.9773 110.626 97.3707 104.525C94.7641 98.4232 92.4528 71.9937 92.4528 71.1226C92.4528 70.2515 93.6158 65.0762 93.6158 65.0762Z" fill="#F3982F"/>
<path d="M107.696 66.4744C107.696 66.4744 121.385 66.4744 123.412 73.736C125.439 80.9976 117.626 92.9074 117.626 92.9074C117.626 92.9074 120.809 116.434 122.253 118.759C123.696 121.083 123.124 125.713 123.124 125.713C124.172 128.9 124.371 132.307 123.7 135.595C122.544 140.822 118.202 150.118 118.202 150.118C118.202 150.118 112.417 150.118 110.969 153.603C109.522 157.087 109.234 138.497 109.234 138.497C109.234 138.497 104.028 104.514 104.316 102.482C104.604 100.451 106.052 83.5999 106.631 78.9516C107.211 74.3033 108.472 68.2166 107.696 66.4744Z" fill="#F3982F"/>
<path d="M118.201 71.1226C118.201 71.1226 124.858 73.1539 124.858 75.478C124.858 77.8022 126.896 90.2904 126.896 94.3567C126.896 98.4231 126.028 99.005 126.896 100.458C127.764 101.911 117.64 101.329 117.64 101.329L115.799 84.7746L118.201 71.1226Z" fill="#F3982F"/>
<path d="M78.8529 92.0364C78.8529 92.0364 91.875 92.9075 94.1899 91.1616C96.5049 89.4158 106.341 93.4858 107.208 95.8099C108.076 98.1341 93.3186 98.4232 91.0073 98.4232C88.696 98.4232 77.6973 101.911 77.6973 101.911L78.8529 92.0364Z" fill="#A0616A"/>
<path d="M52.0474 227.338C52.0474 227.338 45.9775 242.711 49.131 244.541C52.2844 246.371 85.5358 245.068 85.5358 245.068C85.5358 245.068 91.0735 241.627 84.7447 239.241C84.7447 239.241 79.4659 238.977 76.039 236.858C72.6122 234.739 68.6494 230.768 68.6494 230.768C68.6494 230.768 68.3869 224.941 66.2762 226.266C65.6448 226.684 65.1074 227.229 64.6987 227.868C64.29 228.506 64.0189 229.224 63.9029 229.974L52.0474 227.338Z" fill="#3F3D56"/>
<path opacity="0.1" d="M52.0474 227.338C52.0474 227.338 45.9775 242.711 49.131 244.541C52.2844 246.371 85.5358 245.068 85.5358 245.068C85.5358 245.068 91.0735 241.627 84.7447 239.241C84.7447 239.241 79.4659 238.977 76.039 236.858C72.6122 234.739 68.6494 230.768 68.6494 230.768C68.6494 230.768 68.3869 224.941 66.2762 226.266C65.6448 226.684 65.1074 227.229 64.6987 227.868C64.29 228.506 64.0189 229.224 63.9029 229.974L52.0474 227.338Z" fill="black"/>
<path d="M42.6814 232.038C42.6814 232.038 36.0282 248.874 39.4988 250.917C42.9694 252.959 79.4252 251.498 79.4252 251.498C79.4252 251.498 85.5024 247.725 78.5576 245.108C78.5576 245.108 72.772 244.819 69.0098 242.495C65.2475 240.171 60.9093 235.804 60.9093 235.804C60.9093 235.804 60.6213 229.414 58.3064 230.867C57.6136 231.324 57.0241 231.923 56.5757 232.623C56.1274 233.323 55.8302 234.11 55.7034 234.933L42.6814 232.038Z" fill="#3F3D56"/>
<path d="M76.8302 125.149L72.7799 161.75C72.7799 161.75 71.3217 179.179 66.9944 182.953C66.9944 182.953 66.9944 188.472 65.5361 190.214L63.5092 213.163C63.5092 213.163 66.4038 221.581 66.1158 223.045C65.8278 224.509 67.2714 229.143 66.9834 229.725C66.6954 230.307 53.0938 229.725 53.0938 229.725L55.9883 182.96L64.9565 117.898L76.8302 125.149Z" fill="#3C354C"/>
<path opacity="0.1" d="M76.8302 125.149L72.7799 161.75C72.7799 161.75 71.3217 179.179 66.9944 182.953C66.9944 182.953 66.9944 188.472 65.5361 190.214L63.5092 213.163C63.5092 213.163 66.4038 221.581 66.1158 223.045C65.8278 224.509 67.2714 229.143 66.9834 229.725C66.6954 230.307 53.0938 229.725 53.0938 229.725L55.9883 182.96L64.9565 117.898L76.8302 125.149Z" fill="black"/>
<path d="M69.5976 123.985C69.5976 123.985 66.415 153.903 64.9677 160.293C64.0578 164.501 63.4775 168.775 63.2324 173.074C63.2324 173.074 62.9444 182.371 60.3378 184.984C59.5772 185.74 58.9795 186.646 58.5819 187.644C58.1843 188.642 57.9953 189.711 58.0265 190.785C58.0265 190.785 55.4199 220.121 56.8672 223.609C58.3145 227.097 59.7618 229.999 58.3254 232.32C56.889 234.64 40.9651 234.644 40.9651 232.902C40.9651 231.16 40.9651 229.707 40.0975 228.835C39.2298 227.964 40.0975 222.445 40.0975 222.445C40.0975 222.445 36.6269 196.594 39.8095 189.043C42.992 181.492 44.4394 160.86 44.4394 160.86C44.4394 160.86 42.1244 137.333 39.2298 133.556C36.3352 129.779 39.8095 116.42 39.8095 116.42L69.5976 123.985Z" fill="#3C354C"/>
<path d="M61.4531 31.0777C61.7885 31.8463 62.5942 32.2746 63.327 32.6808C67.5741 35.0306 71.1285 38.4381 74.6283 41.8054C73.7548 38.8302 73.9417 35.6424 75.1569 32.7906C75.5725 31.8207 76.123 30.7739 75.824 29.7601C75.6017 29.0281 74.971 28.4717 74.3658 27.9959C72.9368 26.8864 71.4431 25.8634 69.8927 24.9325C68.799 24.281 66.5825 22.5497 65.3393 22.7364C65.2737 24.4237 65.2409 25.9317 64.5045 27.4945C64.3222 27.8825 61.5807 31.3705 61.4531 31.0777Z" fill="#A0616A"/>
<path d="M76.2514 34.811C82.803 34.811 88.1142 29.4788 88.1142 22.9011C88.1142 16.3235 82.803 10.9912 76.2514 10.9912C69.6998 10.9912 64.3887 16.3235 64.3887 22.9011C64.3887 29.4788 69.6998 34.811 76.2514 34.811Z" fill="#A0616A"/>
<path d="M76.83 51.08C76.83 51.08 78.8533 40.9123 73.0678 37.4279C67.2822 33.9435 60.629 29.8772 60.629 29.8772C60.629 29.8772 58.6021 29.5843 57.7345 33.9435C57.7345 33.9435 41.2455 37.1387 39.5065 52.8222C37.7676 68.5056 40.6658 91.4543 40.6658 91.4543C40.6658 91.4543 38.0629 111.497 34.8803 122.243C34.8803 122.243 32.2737 124.567 43.8484 121.083C55.4231 117.598 75.6707 130.965 75.6707 130.965C75.6707 130.965 77.6977 128.93 77.6977 127.477C77.6977 126.024 80.0126 117.595 80.0126 117.595C80.0126 117.595 82.0359 81.8685 82.9036 77.8022C83.7712 73.7359 79.433 51.6619 76.83 51.08Z" fill="#3F3D56"/>
<path d="M58.894 71.1226C58.894 71.1226 74.8033 61.826 71.6207 49.9161C68.4381 38.0062 61.4969 34.2327 61.4969 34.2327C61.4969 34.2327 50.2138 30.4555 40.666 42.6509L41.2457 48.1703C41.2457 48.1703 51.6611 26.9674 62.9442 40.3267C74.2273 53.686 58.894 71.1226 58.894 71.1226Z" fill="#F3982F"/>
<path d="M41.8224 43.2365V90.8651L38.8659 107.112L37.4842 114.685H27.3713L13.1973 109.455V74.3179C13.1973 74.3179 25.0564 50.7872 28.8186 46.4317C32.5809 42.0762 41.8224 43.2365 41.8224 43.2365Z" fill="#F3982F"/>
<path opacity="0.1" d="M38.8612 107.116L37.4831 114.689H27.3557L13.1816 109.462L38.8612 107.116Z" fill="black"/>
<path d="M38.3516 96.97L63.2327 66.4706L41.2425 98.1339L38.9276 98.7122L38.3516 96.97Z" fill="#F3982F"/>
<path d="M73.4551 24.1309C74.1296 23.6734 74.9754 23.5892 75.7847 23.5087C76.594 23.4282 77.4398 23.3184 78.085 22.8206C79.2042 21.9568 79.2881 20.2879 80.1083 19.1349C81.2932 17.4623 83.6592 17.261 85.7043 17.3415C86.9548 17.3927 88.3 17.4696 89.3499 16.7925C90.3999 16.1154 90.9175 14.7794 91.2821 13.546C91.7159 12.082 91.993 10.2958 90.9175 9.21246C90.1884 8.45849 89.0072 8.30842 88.1833 7.64595C87.3594 6.98347 86.9766 5.84519 86.5136 4.85331C85.9851 3.64163 85.1492 2.59036 84.0893 1.80446C82.5363 0.70644 80.5531 0.479515 78.6611 0.497815C76.769 0.516116 74.8696 0.768661 72.9922 0.534416C71.4537 0.344092 69.9189 -0.168317 68.3878 0.0586073C66.4338 0.347753 64.8188 1.83008 63.8527 3.5613C62.8866 5.29252 62.4783 7.26896 62.0773 9.2088L60.9836 14.4903C60.6482 16.13 60.3092 17.81 60.568 19.4607C61.1075 22.8865 64.1261 25.6096 64.3339 29.0684C64.5324 28.1128 64.964 27.2217 65.5901 26.4749C66.2162 25.7281 67.0172 25.1491 67.9211 24.7897C68.1473 24.6788 68.4038 24.6466 68.6503 24.6982C68.9492 24.7971 69.1242 25.0972 69.3138 25.3497C69.8096 26.0122 71.3662 27.0151 72.2302 26.5466C73.0541 26.1257 72.4635 24.808 73.4551 24.1309Z" fill="#3F3D56"/>
<path d="M149.16 171.914C149.16 171.914 141.347 172.203 140.191 181.207C139.036 190.211 140.191 232.038 140.191 232.038C140.191 232.038 149.16 238.718 160.155 237.847C171.15 236.975 188.794 233.78 188.794 233.78V184.735C188.794 177.415 182.714 171.445 175.43 171.866C175.258 171.866 175.065 171.888 174.908 171.907L149.16 171.914Z" fill="#3C354C"/>
<path d="M160.442 244.526C163.317 244.526 165.648 242.186 165.648 239.3C165.648 236.413 163.317 234.073 160.442 234.073C157.567 234.073 155.236 236.413 155.236 239.3C155.236 242.186 157.567 244.526 160.442 244.526Z" fill="#3F3D56"/>
<path d="M188.794 242.202C191.669 242.202 194 239.862 194 236.975C194 234.089 191.669 231.749 188.794 231.749C185.919 231.749 183.588 234.089 183.588 236.975C183.588 239.862 185.919 242.202 188.794 242.202Z" fill="#3F3D56"/>
<path d="M43.5609 78.3843C43.5609 78.3843 41.5339 91.1616 49.9224 90.0014C49.9224 90.0014 54.2643 89.4194 54.844 90.0014C55.4236 90.5833 76.8305 86.8061 79.7251 83.6109C79.7251 83.6109 83.1957 82.4506 84.931 84.1928C86.6663 85.935 104.027 87.6772 98.8243 82.447C93.6221 77.2167 85.5179 76.0565 85.5179 76.0565L74.5229 76.6348C74.5229 76.6348 68.7373 78.3806 65.2667 76.6348C61.7961 74.8889 51.9494 75.4928 51.9494 75.4928L43.5609 78.3843Z" fill="#A0616A"/>
<path d="M55.4207 38.0099C55.4207 38.0099 42.4023 39.4739 42.4023 58.3416V82.4469C42.4023 82.4469 49.6352 79.2516 51.0825 79.5408C52.5298 79.8299 58.3153 75.7636 58.3153 75.7636C58.3153 75.7636 64.9685 60.0838 64.3889 55.7283C63.8092 51.3728 64.1009 38.5882 55.4207 38.0099Z" fill="#3F3D56"/>
<path d="M115.018 84.7711L102 94.0677L110.1 94.9388L121.384 85.3531L115.018 84.7711Z" fill="#3F3D56"/>
<path d="M125.146 98.7159C125.146 98.7159 128.328 108.598 123.99 111.497C119.652 114.396 112.416 101.329 112.416 101.329C112.416 101.329 104.603 92.0363 109.813 90.0012C115.022 87.9662 117.147 96.8273 117.147 96.8273L123.979 102.782L125.146 98.7159Z" fill="#FBBEBE"/>
<path d="M105.329 56.7423C111.719 56.7423 116.9 53.4256 116.9 49.3343C116.9 45.2429 111.719 41.9263 105.329 41.9263C98.9384 41.9263 93.7578 45.2429 93.7578 49.3343C93.7578 53.4256 98.9384 56.7423 105.329 56.7423Z" fill="#3F3D56"/>
<path d="M107.351 39.8948C111.984 39.8948 115.74 36.1242 115.74 31.473C115.74 26.8217 111.984 23.0511 107.351 23.0511C102.719 23.0511 98.9629 26.8217 98.9629 31.473C98.9629 36.1242 102.719 39.8948 107.351 39.8948Z" fill="#3F3D56"/>
<path d="M76.2525 21.3053C82.4034 21.3053 87.3898 18.7047 87.3898 15.4968C87.3898 12.2888 82.4034 9.68823 76.2525 9.68823C70.1016 9.68823 65.1152 12.2888 65.1152 15.4968C65.1152 18.7047 70.1016 21.3053 76.2525 21.3053Z" fill="#3F3D56"/>
<path d="M65.8361 26.2427C67.9924 26.2427 69.7405 21.8855 69.7405 16.5106C69.7405 11.1357 67.9924 6.77844 65.8361 6.77844C63.6797 6.77844 61.9316 11.1357 61.9316 16.5106C61.9316 21.8855 63.6797 26.2427 65.8361 26.2427Z" fill="#3F3D56"/>
<path d="M7.7177 246.25C8.81137 244.233 7.57187 241.763 6.15739 239.962C4.7429 238.161 3.01489 236.302 3.05135 234C3.10603 230.706 6.58756 228.762 9.36915 227.016C11.4337 225.721 13.3378 224.184 15.0417 222.438C15.7567 221.767 16.3468 220.974 16.7843 220.095C17.3603 218.807 17.3457 217.343 17.3092 215.93C17.1877 211.23 16.9556 206.536 16.6129 201.846" stroke="#3F3D56" stroke-width="4" stroke-miterlimit="10"/>
<path d="M21.9036 201.586C21.8648 200.726 21.6107 199.889 21.1647 199.153C20.7186 198.418 20.0951 197.807 19.3517 197.377L18.207 199.654L18.2434 196.901C17.2058 196.595 16.0982 196.628 15.0803 196.995C14.0625 197.362 13.187 198.044 12.5802 198.943C11.9734 199.841 11.6667 200.91 11.7043 201.996C11.7418 203.081 12.1217 204.126 12.7892 204.98C13.4566 205.834 14.3771 206.454 15.4179 206.749C16.4586 207.044 17.5659 206.999 18.5798 206.622C19.5938 206.244 20.4621 205.553 21.0595 204.648C21.6569 203.743 21.9525 202.671 21.9036 201.586Z" fill="#57B894"/>
<path d="M12.7899 236.357C12.2532 237.401 11.3753 238.229 10.3033 238.7C9.23128 239.172 8.03031 239.26 6.90167 238.948C5.77302 238.637 4.78529 237.945 4.10401 236.99C3.42273 236.034 3.0893 234.873 3.15961 233.7C3.22992 232.527 3.69969 231.413 4.49019 230.547C5.2807 229.68 6.34389 229.113 7.50159 228.939C8.65929 228.766 9.84114 228.998 10.8491 229.595C11.857 230.192 12.6297 231.12 13.0378 232.221L9.84064 234.831L13.3586 234.011C13.3595 234.827 13.1644 235.632 12.7899 236.357Z" fill="#57B894"/>
<path d="M10.2373 226.383C9.56569 226.416 8.89423 226.315 8.26148 226.087C7.62872 225.859 7.04717 225.507 6.5502 225.052C6.05324 224.598 5.65067 224.049 5.36562 223.437C5.08057 222.826 4.91866 222.164 4.88921 221.49C4.84884 220.686 5.00007 219.884 5.33033 219.151C5.63666 218.464 6.0892 217.853 6.65608 217.361C7.22296 216.869 7.89039 216.508 8.61136 216.303L8.58584 218.422L9.74149 216.12C10.4131 216.087 11.0845 216.188 11.7173 216.416C12.35 216.645 12.9316 216.996 13.4286 217.451C13.9255 217.906 14.3281 218.455 14.6132 219.066C14.8982 219.677 15.0601 220.339 15.0896 221.014C15.1195 221.607 15.0455 222.2 14.8708 222.767C14.563 223.775 13.9528 224.663 13.1235 225.311C12.2943 225.958 11.2864 226.332 10.2373 226.383Z" fill="#57B894"/>
<path d="M22.6721 218.086C21.8868 218.115 21.1053 217.961 20.3887 217.637C19.6722 217.313 19.0398 216.827 18.5409 216.218C18.0421 215.608 17.6902 214.891 17.5127 214.122C17.3352 213.354 17.337 212.554 17.5177 211.786C17.6985 211.018 18.0535 210.303 18.555 209.695C19.0565 209.088 19.691 208.605 20.409 208.284C21.127 207.963 21.9091 207.813 22.6943 207.845C23.4795 207.878 24.2467 208.092 24.9361 208.471L24.0319 210.96L25.8912 209.166C26.6429 209.849 27.175 210.741 27.4197 211.729C27.6645 212.716 27.6108 213.754 27.2654 214.711C26.9201 215.668 26.2989 216.5 25.4808 217.101C24.6628 217.702 23.685 218.045 22.6721 218.086Z" fill="#57B894"/>
<path opacity="0.1" d="M21.2143 202.955C20.0368 203.087 18.8848 203.456 17.7 203.53C16.5152 203.603 15.2137 203.317 14.4663 202.391C14.0617 201.894 13.8575 201.264 13.5185 200.722C13.1951 200.217 12.7533 199.798 12.2316 199.504C11.9202 200.152 11.7482 200.858 11.7269 201.577C11.7055 202.297 11.8353 203.012 12.1078 203.678C12.3802 204.343 12.7892 204.944 13.3081 205.44C13.8271 205.936 14.4443 206.317 15.1196 206.558C15.795 206.799 16.5133 206.895 17.2278 206.838C17.9423 206.782 18.6369 206.575 19.2666 206.232C19.8962 205.888 20.4467 205.415 20.8821 204.843C21.3176 204.272 21.6283 203.615 21.794 202.915C21.6008 202.922 21.4075 202.937 21.2143 202.955Z" fill="black"/>
<path opacity="0.1" d="M22.6732 218.086C21.7929 218.124 20.9176 217.934 20.1317 217.534C19.3458 217.134 18.6759 216.537 18.1867 215.802C17.6975 215.066 17.4055 214.216 17.3389 213.334C17.2723 212.452 17.4333 211.567 17.8064 210.766C18.2144 211.04 18.565 211.392 18.8381 211.801C19.2026 212.354 19.4214 212.991 19.8516 213.5C20.6463 214.44 22.0098 214.748 23.242 214.689C24.4742 214.631 25.6699 214.283 26.8876 214.169C27.0589 214.169 27.2339 214.14 27.4052 214.137C27.1518 215.222 26.5527 216.195 25.6987 216.908C24.8447 217.62 23.7825 218.034 22.6732 218.086Z" fill="black"/>
<path opacity="0.1" d="M10.2373 226.383C9.56569 226.416 8.89423 226.316 8.26148 226.087C7.62873 225.859 7.04717 225.507 6.5502 225.052C6.05324 224.598 5.65067 224.049 5.36562 223.437C5.08057 222.826 4.91866 222.164 4.88921 221.49C4.84884 220.686 5.00007 219.884 5.33033 219.151C5.75563 219.428 6.12638 219.782 6.42401 220.194C6.82138 220.758 7.06928 221.405 7.51768 221.925C8.38169 222.891 9.83263 223.232 11.1414 223.199C12.4502 223.166 13.6277 222.859 14.8854 222.763C14.5773 223.774 13.9652 224.665 13.133 225.313C12.3009 225.961 11.2894 226.335 10.2373 226.383Z" fill="black"/>
<path opacity="0.1" d="M12.7888 236.357C12.5147 236.972 12.1227 237.526 11.6352 237.989C11.1476 238.451 10.5741 238.813 9.94731 239.053C9.32053 239.293 8.65278 239.407 7.98219 239.388C7.3116 239.369 6.65129 239.218 6.03897 238.943C5.42666 238.667 4.87433 238.274 4.41351 237.784C3.95269 237.295 3.59241 236.719 3.35325 236.09C3.11408 235.461 3.00071 234.79 3.01961 234.117C3.0385 233.444 3.1893 232.781 3.46338 232.166C3.8841 232.444 4.26233 232.782 4.58621 233.169C5.07108 233.765 5.39189 234.439 5.95331 234.999C6.99959 236.031 8.6875 236.463 10.1931 236.496C11.0603 236.499 11.9269 236.453 12.7888 236.357Z" fill="black"/>
<path d="M0 243.93C0 243.93 4.03931 243.805 5.25693 242.934C6.47456 242.063 11.4544 241.023 11.7716 242.422C12.0888 243.82 17.8379 249.376 13.2809 249.398C8.72389 249.42 2.68679 248.684 1.47281 247.934C0.258829 247.183 0 243.93 0 243.93Z" fill="#656380"/>
<path opacity="0.2" d="M13.3611 248.911C8.80045 248.948 2.76699 248.197 1.55301 247.447C0.627034 246.883 0.258835 244.852 0.134885 243.915H0C0 243.915 0.255191 247.183 1.45824 247.941C2.66128 248.699 8.70566 249.434 13.2663 249.405C14.5823 249.405 15.0344 248.926 15.0125 248.227C14.8412 248.64 14.3417 248.904 13.3611 248.911Z" fill="black"/>
</g>
<defs>
<clipPath id="clip0">
<rect width="194" height="252" fill="white"/>
</clipPath>
</defs>
</svg>
